<svg width="664" height="156" viewBox="0 0 664 156" fill="none" xmlns="http://www.w3.org/2000/svg">
<path d="M35.6425 104.551V104.449C35.5405 103.542 35.4382 102.636 35.3362 101.729C34.9482 95.5136 34.7032 87.3825 34.5603 78.8849H74.1011V46.2891H34.3561C34.3765 37.5365 34.4378 31.4841 34.4378 31.4841H48.1693L48.2714 0.641327H0.195737C0.195737 0.641327 -0.406614 63.6312 0.502017 84.9984C1.20646 103.645 3.43209 124.502 43.718 145.97C43.718 145.97 57.4496 153.327 75.6323 154.336H84.9228C84.9228 154.336 40.1856 133.57 35.6425 104.551Z" fill="url(#paint0_linear)"/>
<path d="M123.595 122.791C123.595 122.791 123.595 109.584 123.595 76.7345C123.595 42.57 98.6543 31.586 83.7078 31.586C75.5302 31.586 61.9927 31.586 61.9927 31.586L61.7885 0.539348C61.7885 0.539348 84.4123 -1.17246 106.22 5.58303C128.639 12.634 144.086 37.9338 144.086 37.9338C144.086 37.9338 156 57.5889 156 86.3127C156 114.435 156 154.142 156 154.142C156 154.142 110.967 154.346 84.9125 154.346H75.6221C65.8313 154.346 35.6323 129.953 35.6323 104.561C36.1325 105.57 43.912 123.004 88.1387 123.004L123.595 122.791Z" fill="white"/>
<path d="M292 153.29V44.9033H320.513V153.29H292ZM320.708 27.4839H292.195V0H320.708V27.4839ZM375.658 155.226C365.893 155.226 358.016 152.388 352.027 146.71C346.168 140.903 343.238 133.291 343.238 123.87C342.588 110.58 347.21 100.774 357.105 94.4515C367.129 87.9998 383.47 84.4517 406.124 83.8061C406.645 79.2902 405.799 74.7098 403.585 70.0649C401.242 66.7101 395.904 65.0323 387.571 65.0323C382.492 65.0323 377.156 65.9357 371.557 67.7424C366.088 69.5483 360.881 72.0651 355.933 75.2909L347.339 54.9679C353.33 51.3549 360.229 48.3226 368.041 45.871C375.983 43.4195 384.251 42.1936 392.843 42.1936C420.836 42.1936 434.832 58.1291 434.832 90V153.29H411.397L409.249 142.258H408.662C403.975 146.258 398.833 149.42 393.234 151.742C387.766 154.065 381.908 155.226 375.658 155.226ZM384.446 133.548C388.612 133.419 392.389 132.516 395.774 130.839C399.288 129.032 402.739 126.452 406.124 123.097V101.227C402.739 101.484 399.354 101.807 395.968 102.193C392.714 102.452 389.524 102.839 386.399 103.354C380.149 104.258 375.723 106.129 373.12 108.968C370.646 111.806 369.474 115.161 369.604 119.032C369.734 123.548 371.166 127.096 373.901 129.678C376.764 132.258 380.28 133.548 384.446 133.548ZM464.092 44.9033H487.527L489.479 59.2259H490.26C495.078 54.5807 500.351 50.5807 506.08 47.2259C511.808 43.871 518.384 42.1936 525.805 42.1936C537.653 42.1936 546.246 46.0645 551.583 53.8065C556.922 61.4194 559.591 72.0651 559.591 85.7418V153.29H530.882V89.2255C530.882 80.7102 529.645 74.8387 527.172 71.6128C524.829 68.2582 520.922 66.5803 515.454 66.5803C510.897 66.5803 506.99 67.6126 503.735 69.6772C500.482 71.7418 496.771 74.7742 492.604 78.7745V153.29H464.092V44.9033ZM620.45 156C613.029 156 605.607 154.581 598.186 151.742C590.764 148.904 584.319 145.225 578.851 140.71L591.936 122.904C596.884 126.646 601.701 129.549 606.388 131.613C611.206 133.678 616.153 134.71 621.23 134.71C626.699 134.71 630.67 133.678 633.143 131.613C635.748 129.42 637.05 126.646 637.05 123.29C637.05 121.225 636.398 119.483 635.097 118.064C633.795 116.517 632.037 115.161 629.823 113.999C627.741 112.71 625.332 111.549 622.597 110.517C619.864 109.355 617.064 108.194 614.201 107.033C610.684 105.742 607.169 104.258 603.654 102.581C600.139 100.774 596.949 98.6455 594.084 96.1938C591.221 93.6126 588.876 90.6455 587.055 87.2908C585.231 83.9361 584.319 80.0002 584.319 75.4842C584.319 70.5805 585.296 66.129 587.25 62.1292C589.202 58.0001 591.936 54.4517 595.451 51.4839C598.968 48.5162 603.199 46.2581 608.146 44.7098C613.223 43.0323 618.822 42.1936 624.941 42.1936C633.143 42.1936 640.239 43.613 646.229 46.4517C652.348 49.1614 657.685 52.1936 662.243 55.5485L649.354 72.774C645.447 70.0649 641.542 67.8714 637.635 66.1935C633.86 64.3868 629.888 63.4839 625.722 63.4839C620.775 63.4839 617.129 64.4521 614.785 66.3868C612.442 68.3225 611.271 70.8384 611.271 73.9353C611.271 75.871 611.856 77.5489 613.029 78.9679C614.331 80.387 616.023 81.6771 618.106 82.8393C620.189 84.0006 622.532 85.0972 625.137 86.1296C627.871 87.0319 630.67 87.9998 633.534 89.0321C637.18 90.4522 640.76 92.0001 644.275 93.678C647.922 95.3548 651.175 97.4195 654.041 99.8704C657.035 102.323 659.443 105.354 661.267 108.968C663.089 112.452 664 116.71 664 121.742C664 126.516 663.024 130.968 661.071 135.097C659.248 139.226 656.514 142.839 652.868 145.936C649.224 149.033 644.667 151.484 639.198 153.29C633.86 155.096 627.61 156 620.45 156Z" fill="white"/>
<path d="M176 0H272V25.5976H207.159V65.7629H262.526V91.5689H207.159V154.002H176V0Z" fill="white"/>
<defs>
<linearGradient id="paint0_linear" x1="8.86805" y1="110.676" x2="62.6914" y2="57.453" gradientUnits="userSpaceOnUse">
<stop stop-color="#B57E10"/>
<stop offset="0.1507" stop-color="#B57E10"/>
<stop offset="0.4638" stop-color="#E5C35C"/>
<stop offset="0.6129" stop-color="#F9DF7B"/>
<stop offset="0.7204" stop-color="#FFF3A6"/>
<stop offset="0.8387" stop-color="#F9DF7B"/>
<stop offset="1" stop-color="#B57E10"/>
</linearGradient>
</defs>
</svg>
